<mxfile host="app.diagrams.net" modified="2020-10-07T19:26:37.002Z" agent="5.0 (Windows NT 10.0; Win64; x64) AppleWebKit/537.36 (KHTML, like Gecko) Chrome/85.0.4183.121 Safari/537.36" etag="J2PzmM1AxfYXx33OmEpd" version="13.7.8" type="github">
  <diagram id="2I5on98Vg4IV1jlv-EVf" name="Page-1">
    <mxGraphModel dx="1422" dy="802" grid="1" gridSize="10" guides="1" tooltips="1" connect="1" arrows="1" fold="1" page="1" pageScale="1" pageWidth="827" pageHeight="1169" math="0" shadow="0">
      <root>
        <mxCell id="0" />
        <mxCell id="1" parent="0" />
        <mxCell id="dO6dF5b318bosaFBG7k9-1" value="Lorem ipsum" style="rounded=0;whiteSpace=wrap;html=1;" parent="1" vertex="1">
          <mxGeometry x="354" y="30" width="120" height="60" as="geometry" />
        </mxCell>
        <mxCell id="dO6dF5b318bosaFBG7k9-7" style="edgeStyle=orthogonalEdgeStyle;rounded=0;orthogonalLoop=1;jettySize=auto;html=1;" parent="1" source="dO6dF5b318bosaFBG7k9-2" target="dO6dF5b318bosaFBG7k9-4" edge="1">
          <mxGeometry relative="1" as="geometry" />
        </mxCell>
        <mxCell id="dO6dF5b318bosaFBG7k9-8" style="edgeStyle=orthogonalEdgeStyle;rounded=0;orthogonalLoop=1;jettySize=auto;html=1;exitX=1;exitY=0.5;exitDx=0;exitDy=0;" parent="1" source="dO6dF5b318bosaFBG7k9-2" target="dO6dF5b318bosaFBG7k9-5" edge="1">
          <mxGeometry relative="1" as="geometry" />
        </mxCell>
        <mxCell id="dO6dF5b318bosaFBG7k9-9" style="edgeStyle=orthogonalEdgeStyle;rounded=0;orthogonalLoop=1;jettySize=auto;html=1;" parent="1" source="dO6dF5b318bosaFBG7k9-2" target="dO6dF5b318bosaFBG7k9-6" edge="1">
          <mxGeometry relative="1" as="geometry" />
        </mxCell>
        <mxCell id="dO6dF5b318bosaFBG7k9-11" style="edgeStyle=orthogonalEdgeStyle;rounded=0;orthogonalLoop=1;jettySize=auto;html=1;entryX=0.5;entryY=0;entryDx=0;entryDy=0;" parent="1" source="dO6dF5b318bosaFBG7k9-2" target="dO6dF5b318bosaFBG7k9-10" edge="1">
          <mxGeometry relative="1" as="geometry" />
        </mxCell>
        <mxCell id="dO6dF5b318bosaFBG7k9-13" style="edgeStyle=orthogonalEdgeStyle;rounded=0;orthogonalLoop=1;jettySize=auto;html=1;" parent="1" source="dO6dF5b318bosaFBG7k9-2" target="dO6dF5b318bosaFBG7k9-12" edge="1">
          <mxGeometry relative="1" as="geometry" />
        </mxCell>
        <mxCell id="dO6dF5b318bosaFBG7k9-2" value="Sekcje&lt;br&gt;" style="rounded=0;whiteSpace=wrap;html=1;" parent="1" vertex="1">
          <mxGeometry x="70" y="180" width="120" height="60" as="geometry" />
        </mxCell>
        <mxCell id="dO6dF5b318bosaFBG7k9-4" value="Autoryzacja" style="rounded=0;whiteSpace=wrap;html=1;" parent="1" vertex="1">
          <mxGeometry x="70" y="290" width="120" height="60" as="geometry" />
        </mxCell>
        <mxCell id="dO6dF5b318bosaFBG7k9-5" value="Kalendarz" style="rounded=0;whiteSpace=wrap;html=1;" parent="1" vertex="1">
          <mxGeometry x="240" y="290" width="120" height="60" as="geometry" />
        </mxCell>
        <mxCell id="dO6dF5b318bosaFBG7k9-6" value="Śledź ciążę" style="rounded=0;whiteSpace=wrap;html=1;" parent="1" vertex="1">
          <mxGeometry x="390" y="290" width="120" height="60" as="geometry" />
        </mxCell>
        <mxCell id="dO6dF5b318bosaFBG7k9-10" value="Q&amp;amp;A" style="rounded=0;whiteSpace=wrap;html=1;" parent="1" vertex="1">
          <mxGeometry x="560" y="290" width="120" height="60" as="geometry" />
        </mxCell>
        <mxCell id="dO6dF5b318bosaFBG7k9-12" value="Dieta" style="rounded=0;whiteSpace=wrap;html=1;" parent="1" vertex="1">
          <mxGeometry x="707" y="290" width="120" height="60" as="geometry" />
        </mxCell>
        <mxCell id="dO6dF5b318bosaFBG7k9-16" style="edgeStyle=orthogonalEdgeStyle;rounded=0;orthogonalLoop=1;jettySize=auto;html=1;exitX=0.5;exitY=1;exitDx=0;exitDy=0;entryX=0.5;entryY=0;entryDx=0;entryDy=0;" parent="1" source="dO6dF5b318bosaFBG7k9-14" target="dO6dF5b318bosaFBG7k9-15" edge="1">
          <mxGeometry relative="1" as="geometry" />
        </mxCell>
        <mxCell id="dO6dF5b318bosaFBG7k9-14" value="Backend" style="rounded=0;whiteSpace=wrap;html=1;" parent="1" vertex="1">
          <mxGeometry x="70" y="450" width="120" height="60" as="geometry" />
        </mxCell>
        <mxCell id="dO6dF5b318bosaFBG7k9-21" style="edgeStyle=orthogonalEdgeStyle;rounded=0;orthogonalLoop=1;jettySize=auto;html=1;" parent="1" source="dO6dF5b318bosaFBG7k9-15" target="dO6dF5b318bosaFBG7k9-17" edge="1">
          <mxGeometry relative="1" as="geometry" />
        </mxCell>
        <mxCell id="dO6dF5b318bosaFBG7k9-23" style="edgeStyle=orthogonalEdgeStyle;rounded=0;orthogonalLoop=1;jettySize=auto;html=1;exitX=1;exitY=0.5;exitDx=0;exitDy=0;" parent="1" source="dO6dF5b318bosaFBG7k9-15" target="dO6dF5b318bosaFBG7k9-22" edge="1">
          <mxGeometry relative="1" as="geometry" />
        </mxCell>
        <mxCell id="dO6dF5b318bosaFBG7k9-15" value="Endpoints" style="rounded=0;whiteSpace=wrap;html=1;" parent="1" vertex="1">
          <mxGeometry x="70" y="550" width="120" height="60" as="geometry" />
        </mxCell>
        <mxCell id="dO6dF5b318bosaFBG7k9-17" value="Autoryzacja" style="rounded=0;whiteSpace=wrap;html=1;" parent="1" vertex="1">
          <mxGeometry x="70" y="700" width="120" height="60" as="geometry" />
        </mxCell>
        <mxCell id="dO6dF5b318bosaFBG7k9-18" value="POST /register" style="rounded=0;whiteSpace=wrap;html=1;" parent="1" vertex="1">
          <mxGeometry x="70" y="810" width="120" height="60" as="geometry" />
        </mxCell>
        <mxCell id="dO6dF5b318bosaFBG7k9-19" value="POST /login" style="rounded=0;whiteSpace=wrap;html=1;" parent="1" vertex="1">
          <mxGeometry x="70" y="900" width="120" height="60" as="geometry" />
        </mxCell>
        <mxCell id="dO6dF5b318bosaFBG7k9-20" value="GET /is-logged" style="rounded=0;whiteSpace=wrap;html=1;" parent="1" vertex="1">
          <mxGeometry x="70" y="980" width="120" height="60" as="geometry" />
        </mxCell>
        <mxCell id="dO6dF5b318bosaFBG7k9-22" value="Dane o użytkowniku" style="rounded=0;whiteSpace=wrap;html=1;" parent="1" vertex="1">
          <mxGeometry x="240" y="700" width="120" height="60" as="geometry" />
        </mxCell>
        <mxCell id="dO6dF5b318bosaFBG7k9-24" value="GET /user/:id" style="rounded=0;whiteSpace=wrap;html=1;" parent="1" vertex="1">
          <mxGeometry x="240" y="810" width="120" height="60" as="geometry" />
        </mxCell>
        <mxCell id="dO6dF5b318bosaFBG7k9-26" value="PUT /user/:id&lt;br&gt;w body obiekt z kluczami i wartosciami elementow do zmiany" style="rounded=0;whiteSpace=wrap;html=1;" parent="1" vertex="1">
          <mxGeometry x="240" y="900" width="120" height="90" as="geometry" />
        </mxCell>
        <mxCell id="dO6dF5b318bosaFBG7k9-33" style="edgeStyle=orthogonalEdgeStyle;rounded=0;orthogonalLoop=1;jettySize=auto;html=1;entryX=0.57;entryY=0.033;entryDx=0;entryDy=0;entryPerimeter=0;" parent="1" source="dO6dF5b318bosaFBG7k9-29" target="dO6dF5b318bosaFBG7k9-30" edge="1">
          <mxGeometry relative="1" as="geometry" />
        </mxCell>
        <mxCell id="dO6dF5b318bosaFBG7k9-29" value="MongoDB" style="rounded=0;whiteSpace=wrap;html=1;" parent="1" vertex="1">
          <mxGeometry x="580" y="440" width="120" height="60" as="geometry" />
        </mxCell>
        <mxCell id="dO6dF5b318bosaFBG7k9-48" style="edgeStyle=orthogonalEdgeStyle;rounded=0;orthogonalLoop=1;jettySize=auto;html=1;exitX=0.75;exitY=1;exitDx=0;exitDy=0;entryX=1;entryY=0.5;entryDx=0;entryDy=0;" parent="1" source="dO6dF5b318bosaFBG7k9-30" target="dO6dF5b318bosaFBG7k9-34" edge="1">
          <mxGeometry relative="1" as="geometry" />
        </mxCell>
        <mxCell id="dO6dF5b318bosaFBG7k9-49" style="edgeStyle=orthogonalEdgeStyle;rounded=0;orthogonalLoop=1;jettySize=auto;html=1;exitX=0.75;exitY=1;exitDx=0;exitDy=0;entryX=1;entryY=0.5;entryDx=0;entryDy=0;" parent="1" source="dO6dF5b318bosaFBG7k9-30" target="dO6dF5b318bosaFBG7k9-35" edge="1">
          <mxGeometry relative="1" as="geometry" />
        </mxCell>
        <mxCell id="dO6dF5b318bosaFBG7k9-50" style="edgeStyle=orthogonalEdgeStyle;rounded=0;orthogonalLoop=1;jettySize=auto;html=1;exitX=0.75;exitY=1;exitDx=0;exitDy=0;entryX=1;entryY=0.5;entryDx=0;entryDy=0;" parent="1" source="dO6dF5b318bosaFBG7k9-30" target="dO6dF5b318bosaFBG7k9-36" edge="1">
          <mxGeometry relative="1" as="geometry" />
        </mxCell>
        <mxCell id="dO6dF5b318bosaFBG7k9-51" style="edgeStyle=orthogonalEdgeStyle;rounded=0;orthogonalLoop=1;jettySize=auto;html=1;exitX=0.75;exitY=1;exitDx=0;exitDy=0;entryX=1;entryY=0.5;entryDx=0;entryDy=0;" parent="1" source="dO6dF5b318bosaFBG7k9-30" target="dO6dF5b318bosaFBG7k9-37" edge="1">
          <mxGeometry relative="1" as="geometry" />
        </mxCell>
        <mxCell id="dO6dF5b318bosaFBG7k9-52" style="edgeStyle=orthogonalEdgeStyle;rounded=0;orthogonalLoop=1;jettySize=auto;html=1;exitX=0.75;exitY=1;exitDx=0;exitDy=0;entryX=1;entryY=0.5;entryDx=0;entryDy=0;" parent="1" source="dO6dF5b318bosaFBG7k9-30" target="dO6dF5b318bosaFBG7k9-38" edge="1">
          <mxGeometry relative="1" as="geometry" />
        </mxCell>
        <mxCell id="dO6dF5b318bosaFBG7k9-53" style="edgeStyle=orthogonalEdgeStyle;rounded=0;orthogonalLoop=1;jettySize=auto;html=1;exitX=0.75;exitY=1;exitDx=0;exitDy=0;entryX=1;entryY=0.5;entryDx=0;entryDy=0;" parent="1" source="dO6dF5b318bosaFBG7k9-30" target="dO6dF5b318bosaFBG7k9-39" edge="1">
          <mxGeometry relative="1" as="geometry" />
        </mxCell>
        <mxCell id="dO6dF5b318bosaFBG7k9-54" style="edgeStyle=orthogonalEdgeStyle;rounded=0;orthogonalLoop=1;jettySize=auto;html=1;exitX=0.75;exitY=1;exitDx=0;exitDy=0;entryX=1;entryY=0.5;entryDx=0;entryDy=0;" parent="1" source="dO6dF5b318bosaFBG7k9-30" target="dO6dF5b318bosaFBG7k9-43" edge="1">
          <mxGeometry relative="1" as="geometry" />
        </mxCell>
        <mxCell id="dO6dF5b318bosaFBG7k9-55" style="edgeStyle=orthogonalEdgeStyle;rounded=0;orthogonalLoop=1;jettySize=auto;html=1;exitX=0.75;exitY=1;exitDx=0;exitDy=0;entryX=1;entryY=0.5;entryDx=0;entryDy=0;" parent="1" source="dO6dF5b318bosaFBG7k9-30" target="dO6dF5b318bosaFBG7k9-44" edge="1">
          <mxGeometry relative="1" as="geometry" />
        </mxCell>
        <mxCell id="dO6dF5b318bosaFBG7k9-56" style="edgeStyle=orthogonalEdgeStyle;rounded=0;orthogonalLoop=1;jettySize=auto;html=1;exitX=0.75;exitY=1;exitDx=0;exitDy=0;entryX=1;entryY=0.5;entryDx=0;entryDy=0;" parent="1" source="dO6dF5b318bosaFBG7k9-30" target="dO6dF5b318bosaFBG7k9-46" edge="1">
          <mxGeometry relative="1" as="geometry" />
        </mxCell>
        <mxCell id="dO6dF5b318bosaFBG7k9-30" value="Document Scheme" style="rounded=0;whiteSpace=wrap;html=1;" parent="1" vertex="1">
          <mxGeometry x="505" y="540" width="230" height="60" as="geometry" />
        </mxCell>
        <mxCell id="dO6dF5b318bosaFBG7k9-31" value="" style="shape=datastore;whiteSpace=wrap;html=1;" parent="1" vertex="1">
          <mxGeometry x="505" y="440" width="60" height="60" as="geometry" />
        </mxCell>
        <mxCell id="dO6dF5b318bosaFBG7k9-34" value="e-mail" style="rounded=0;whiteSpace=wrap;html=1;" parent="1" vertex="1">
          <mxGeometry x="505" y="630" width="120" height="40" as="geometry" />
        </mxCell>
        <mxCell id="dO6dF5b318bosaFBG7k9-35" value="hash password" style="rounded=0;whiteSpace=wrap;html=1;" parent="1" vertex="1">
          <mxGeometry x="505" y="690" width="120" height="40" as="geometry" />
        </mxCell>
        <mxCell id="dO6dF5b318bosaFBG7k9-36" value="pregnancy-start" style="rounded=0;whiteSpace=wrap;html=1;" parent="1" vertex="1">
          <mxGeometry x="505" y="750" width="120" height="40" as="geometry" />
        </mxCell>
        <mxCell id="dO6dF5b318bosaFBG7k9-37" value="photo_src" style="rounded=0;whiteSpace=wrap;html=1;" parent="1" vertex="1">
          <mxGeometry x="505" y="810" width="120" height="40" as="geometry" />
        </mxCell>
        <mxCell id="dO6dF5b318bosaFBG7k9-38" value="first_name" style="rounded=0;whiteSpace=wrap;html=1;" parent="1" vertex="1">
          <mxGeometry x="505" y="870" width="120" height="40" as="geometry" />
        </mxCell>
        <mxCell id="dO6dF5b318bosaFBG7k9-39" value="last_name" style="rounded=0;whiteSpace=wrap;html=1;" parent="1" vertex="1">
          <mxGeometry x="505" y="930" width="120" height="40" as="geometry" />
        </mxCell>
        <mxCell id="dO6dF5b318bosaFBG7k9-43" value="age" style="rounded=0;whiteSpace=wrap;html=1;" parent="1" vertex="1">
          <mxGeometry x="505" y="990" width="120" height="40" as="geometry" />
        </mxCell>
        <mxCell id="dO6dF5b318bosaFBG7k9-44" value="height" style="rounded=0;whiteSpace=wrap;html=1;" parent="1" vertex="1">
          <mxGeometry x="505" y="1050" width="120" height="40" as="geometry" />
        </mxCell>
        <mxCell id="dO6dF5b318bosaFBG7k9-46" value="weight" style="rounded=0;whiteSpace=wrap;html=1;" parent="1" vertex="1">
          <mxGeometry x="505" y="1110" width="120" height="40" as="geometry" />
        </mxCell>
      </root>
    </mxGraphModel>
  </diagram>
</mxfile>
